Coordinates
version=1
nRows=4
nColumns=138
inDegrees=yes

Units are S.I. units (second, meters, Newtons, ...)
If the header above contains a line with 'inDegrees', this indicates whether rotational values are in degrees (yes) or radians (no).

endheader
time	pelvis_tilt	pelvis_list	pelvis_rotation	pelvis_tx	pelvis_ty	pelvis_tz	L5_S1_FE	L5_S1_LB	L5_S1_AR	L4_L5_FE	L4_L5_LB	L4_L5_AR	T12_L1_FE	T12_L1_LB	T12_L1_AR	T11_T12_FE	T11_T12_LB	T11_T12_AR	T10_T11_FE	T10_T11_LB	T10_T11_AR	T9_T10_FE	T9_T10_LB	T9_T10_AR	T8_T9_FE	T8_T9_LB	T8_T9_AR	T1_T2_FE	T1_T2_LB	T1_T2_AR	T1_head_neck_FE	T1_head_neck_LB	T1_head_neck_AR	hip_flexion_r	hip_adduction_r	hip_rotation_r	knee_angle_r	knee_angle_y_r	knee_angle_x_r	ankle_angle_r	subtalar_angle_r	mtp_angle_r	hip_flexion_l	hip_adduction_l	hip_rotation_l	knee_angle_l	knee_angle_y_l	knee_angle_x_l	ankle_angle_l	subtalar_angle_l	mtp_angle_l	skull_z	skull_y	skull_x	sternoclavicular_r2	sternoclavicular_r3	unrotscap_r3	unrotscap_r2	acromioclavicular_r2	acromioclavicular_r3	acromioclavicular_r1	unrothum_r1	unrothum_r3	unrothum_r2	elv_angle	shoulder_elv	shoulder1_r2	shoulder_rot	elbow_flexion	elbow_x	elbow_y	pro_sup	deviation	flexion	thumb_abd	thumb_flex	TCP2M_lateral	TCP2M_flex	TCP2M2_flex	MCP2_lateral	MCP2_flex	PIP_flex	DIP_flex	MCP2M_lateral	MCP2M_flex	MPIP_flex	MDIP_flex	RCP2M_lateral	RCP2M_flex	RPIP_flex	RDIP_flex	LCP2M_lateral	LCP2M_flex	LPIP_flex	LDIP_flex	sternoclavicular_r2_l	sternoclavicular_r3_l	unrotscap_r3_l	unrotscap_r2_l	acromioclavicular_r2_l	acromioclavicular_r3_l	acromioclavicular_r1_l	unrothum_r1_l	unrothum_r3_l	unrothum_r2_l	elv_angle_l	shoulder_elv_l	shoulder1_r2_l	shoulder_rot_l	elbow_flexion_l	elbow_x_l	elbow_y_l	pro_sup_l	deviation_l	flexion_l	thumb_l_abd	thumb_l_flex	TCP2M_l_lateral	TCP2M_l_flex	TCP2M2_l_flex	MCP2_l_lateral	MCP2_l_flex	PIP_l_flex	DIP_l_flex	MCP2M_l_lateral	MCP2M_l_flex	MPIP_l_flex	MDIP_l_flex	RCP2M_l_lateral	RCP2M_l_flex	RPIP_l_flex	RDIP_l_flex	LCP2M_l_lateral	LCP2M_l_flex	LPIP_l_flex	LDIP_l_flex	ribs_bending
      2.30000000	     90.75864712	     90.20929314	   -181.59449367	      0.42278564	     -0.13340330	      0.92749869	    -11.41042417	     -1.75327191	     -1.79909796	      1.62201605	     -1.56407621	     -1.27425792	      0.88185001	     -0.19165191	     -0.61229857	      0.33693174	      0.14681384	     -0.37815018	     -0.22163386	      0.34413265	     -0.39743497	      1.33667173	      0.52686534	     -0.38080550	      0.26904159	      0.73167730	     -0.28004782	      1.45075303	     -0.02324590	      0.69884014	    -14.33087395	     -1.75752132	     -0.88611556	     21.31967703	    -13.52705212	     -2.00820537	    -31.60837713	      1.81883148	      2.08652020	     -0.98082774	      0.32667259	     -7.27876906	     19.90447427	    -15.21411340	     -1.21452827	    -45.33383579	     -0.04653593	     -0.50003493	      9.61002940	     -7.06029487	     -7.33818627	      6.29834826	     -3.19459235	      2.08255711	    -10.76089344	     -6.00803691	     -4.05745974	      9.57958421	     32.71451479	     15.67573824	      7.04613645	     -7.04613645	    -15.67573824	      1.93967094	    -25.90213928	     39.58497000	     25.90213928	      5.18328611	     92.43533055	      0.71783950	      0.00000000	    -18.13716369	      9.47930479	     -4.51374839	     -6.01220091	     10.48163734	      1.19472094	    -15.11255436	      3.74794851	      5.91722982	     27.32381286	     32.00083955	      7.10566150	      4.57767367	     18.33893221	     45.99292764	     10.89402341	     13.91288800	     20.19602932	     48.87751659	     18.27669054	     -8.03049713	      7.22835220	     47.90335726	     11.66149402	     -8.96323398	     -5.20217623	     -4.46648532	     10.54528572	     18.74247437	     17.25598261	      7.75644542	     -7.75644542	    -17.25598261	      2.13520585	    -31.95243334	     43.57546314	     35.86023104	      7.06957644	     98.31079640	     -0.65027204	      0.00000000	     -8.58253237	      4.28047254	      5.12307505	     -5.53004939	      6.92531055	     -0.00525251	    -12.10913621	     10.41556226	      9.24874706	     26.67375666	     36.11782310	     12.50482586	      9.16568920	     20.99226365	     41.68917087	     14.50654118	     21.90333056	     19.53026114	     54.19606814	     11.30378160	     -4.07263509	      2.99287583	     51.54334798	     12.45257454	      2.31945405
      2.30830000	     91.15598206	     90.44983070	   -181.16649893	      0.41680268	     -0.13423626	      0.92260749	    -11.47454421	     -1.72932268	     -1.80683536	      1.71613530	     -1.56630972	     -1.28381018	      1.01410138	     -0.18545881	     -0.63504963	      0.39390698	      0.16745926	     -0.41421650	     -0.17006484	      0.37694379	     -0.43588745	      1.26459214	      0.57347109	     -0.43737487	      0.16856663	      0.79412462	     -0.33642669	      1.38364384	      0.11946564	      0.70306057	    -14.44794125	     -1.70573109	     -1.07488129	     20.90884921	    -13.35027429	     -2.26625860	    -31.93769527	      1.76894267	      2.66471318	      1.60276903	      0.31775324	     -7.20760095	     21.51513996	    -15.22828687	     -1.16312215	    -48.55401890	     -0.11379055	     -0.44891062	     12.32063373	     -7.21338695	     -7.28809400	      6.13708726	     -3.38842419	      2.18079874	    -10.73613406	     -6.00546269	     -4.08223249	      9.63807219	     32.48016176	     15.77144618	      7.08915652	     -7.08915652	    -15.77144618	      1.95151357	    -26.18837801	     39.82665533	     26.18837801	      5.32335010	     91.50425804	      0.92826808	      0.00000000	    -18.59526594	      9.47486728	     -4.72593539	     -5.97389762	     10.41549033	      1.24777505	    -15.14663455	      3.75716343	      5.90870416	     27.33045329	     31.98113295	      7.09992585	      4.55695448	     18.35802630	     45.96879876	     10.89119080	     13.92687918	     20.22404161	     48.87973537	     18.27384478	     -8.07409190	      7.26473219	     47.98166161	     11.71477169	     -9.11377447	     -5.36076128	     -4.47955105	     10.57613365	     18.78715528	     17.30646122	      7.77913521	     -7.77913521	    -17.30646122	      2.14145193	    -31.74284915	     43.70293366	     35.78068680	      6.97109566	     98.97767490	     -0.58001556	      0.00000000	     -8.25312683	      4.05471232	      5.42874402	     -5.47197072	      6.92570828	      0.05311795	    -12.12553832	     10.40121756	      9.26788164	     26.66987672	     36.09651366	     12.49855136	      9.13162121	     20.99883419	     41.67028727	     14.49426563	     21.86464482	     19.56448491	     54.20033275	     11.31185900	     -4.15822725	      3.02862822	     51.59455685	     12.50056158	      2.31945405
      2.31670000	     91.41944120	     90.79877172	   -180.86595380	      0.41045662	     -0.13494366	      0.91731915	    -11.48801162	     -1.68804554	     -1.77518951	      1.90448789	     -1.53576515	     -1.26873894	      1.11295597	     -0.14367732	     -0.64784975	      0.39249818	      0.21712264	     -0.43395608	     -0.19520066	      0.43180605	     -0.45402874	      1.11664077	      0.63253369	     -0.46615565	     -0.01053176	      0.85573548	     -0.36161971	      1.42022046	      0.18140422	      0.71328199	    -14.42294267	     -1.66142243	     -1.21047987	     20.73339718	    -12.97655309	     -2.52359837	    -32.46077889	      1.85634262	      3.23361355	      3.77487014	      0.39615017	     -7.16473704	     23.03744512	    -15.30785737	     -1.16058161	    -51.83118618	     -0.20223820	     -0.37883928	     14.49717634	     -7.43206141	     -7.26690273	      6.03175537	     -3.53271639	      2.27488824	    -10.68672714	     -6.10491661	     -4.11797672	      9.72246364	     32.23788302	     15.90954177	      7.15122953	     -7.15122953	    -15.90954177	      1.96860112	    -26.42093309	     40.17537956	     26.42093309	      5.40831741	     90.63518442	      1.10274123	      0.00000000	    -18.91862811	      9.43691150	     -4.87124552	     -5.93892597	     10.36382878	      1.29969751	    -15.17565809	      3.76298242	      5.89977145	     27.35873082	     31.96671239	      7.09480552	      4.53524339	     18.39376332	     45.95270035	     10.88984096	     13.93403415	     20.25031350	     48.88148631	     18.27029224	     -8.12255129	      7.27879652	     48.04508212	     11.76153287	     -9.21747343	     -5.59579509	     -4.49200869	     10.60554590	     18.81032518	     17.35459052	      7.80076900	     -7.80076900	    -17.35459052	      2.14740731	    -31.55772887	     43.82447160	     35.69437542	      6.86705810	     99.66826369	     -0.55328674	      0.00000000	     -8.11587316	      4.01827045	      5.58042631	     -5.43536474	      6.90023170	      0.09272745	    -12.16048207	     10.37360940	      9.31571927	     26.63267366	     36.07163855	     12.49215685	      9.12513158	     20.96105501	     41.62863796	     14.47054987	     21.83245494	     19.56751363	     54.18167884	     11.31088034	     -4.23730342	      3.05982273	     51.62896947	     12.54099792	      2.31945405
      2.32500000	     91.55243612	     91.10606455	   -180.76725758	      0.40388720	     -0.13562828	      0.91179695	    -11.40360435	     -1.72410640	     -1.77353428	      2.24368365	     -1.56469691	     -1.26522630	      1.19315572	     -0.07603627	     -0.65227751	      0.31333167	      0.30458426	     -0.42902703	     -0.34045871	      0.52742611	     -0.44423277	      0.83956013	      0.73009208	     -0.44508281	     -0.33147373	      0.94624668	     -0.33824072	      1.57755810	      0.14733178	      0.76049856	    -14.31298736	     -1.55717193	     -1.30758540	     20.99707785	    -12.61721728	     -2.67509086	    -33.62316344	      2.01821254	      3.74515049	      4.88293326	      0.59172626	     -7.12297457	     24.41129534	    -15.27643175	     -1.29790193	    -55.02830051	     -0.45427608	     -0.29963585	     15.80590308	     -7.60995745	     -7.23285984	      6.02912946	     -3.62830905	      2.35449083	    -10.53116942	     -6.16766037	     -4.16700748	      9.83822430	     32.07894454	     16.09896896	      7.23637575	     -7.23637575	    -16.09896896	      1.99204030	    -26.51619683	     40.65372831	     26.51619683	      5.40648440	     89.83775676	      1.18174287	      0.00000000	    -18.95693239	      9.36124072	     -4.75507089	     -5.90324577	     10.35067111	      1.33953081	    -15.19559448	      3.76145951	      5.89578930	     27.41057485	     31.97159163	      7.09586679	      4.52301650	     18.44444296	     45.95768135	     10.89347840	     13.92877415	     20.28121023	     48.89395988	     18.27296292	     -8.15800712	      7.27989514	     48.07740378	     11.78686602	     -9.27871482	     -5.82998476	     -4.50314132	     10.63182983	     18.83119239	     17.39760074	      7.82010180	     -7.82010180	    -17.39760074	      2.15272927	    -31.35740746	     43.93308263	     35.56346787	      6.72480538	    100.41804846	     -0.59866922	      0.00000000	     -7.97594306	      4.12314657	      5.77573736	     -5.37151325	      6.90702001	      0.13700516	    -12.18908176	     10.35405529	      9.35311688	     26.64419430	     36.07222979	     12.49426332	      9.12797251	     20.96391478	     41.61890752	     14.46240027	     21.81483454	     19.57868711	     54.18186541	     11.31390350	     -4.28355520	      3.07324284	     51.65083580	     12.56447675	      2.31945405
